<?xml version="1.0" standalone="no"?>
<!DOCTYPE svg PUBLIC "-//W3C//DTD SVG 20010904//EN"
 "http://www.w3.org/TR/2001/REC-SVG-20010904/DTD/svg10.dtd">
<svg version="1.0" xmlns="http://www.w3.org/2000/svg"
 width="216.000000pt" height="216.000000pt" viewBox="0 0 216.000000 216.000000"
 preserveAspectRatio="xMidYMid meet">
<metadata>
Created by potrace 1.14, written by Peter Selinger 2001-2017
</metadata>
<g transform="translate(0.000000,216.000000) scale(0.100000,-0.100000)"
fill="#000000" stroke="none">
<path d="M933 1930 c-13 -5 -23 -7 -23 -3 0 3 -6 0 -13 -6 -8 -6 -17 -8 -20
-4 -4 3 -13 0 -22 -7 -8 -7 -15 -10 -15 -6 0 11 -148 -62 -207 -102 -108 -75
-222 -200 -249 -274 -3 -10 -10 -18 -15 -18 -5 0 -8 -3 -7 -7 1 -5 -9 -30 -21
-58 -13 -27 -24 -54 -25 -60 -1 -5 -5 -19 -9 -30 -16 -49 -20 -88 -23 -215 -4
-137 7 -216 41 -302 8 -21 11 -38 7 -38 -4 0 -2 -4 3 -8 6 -4 21 -29 35 -57
13 -27 27 -52 31 -55 3 -3 14 -20 23 -38 9 -18 24 -36 32 -39 7 -3 14 -10 14
-15 0 -11 120 -128 131 -128 4 0 14 -6 21 -13 18 -17 99 -69 112 -72 6 -1 27
-9 46 -17 53 -23 74 -31 85 -33 6 -1 12 -3 15 -4 12 -6 48 -12 78 -13 17 -1
32 -6 32 -10 0 -8 192 -4 230 5 29 8 83 20 90 22 41 8 213 87 230 105 3 3 23
19 45 35 38 29 113 101 145 141 51 63 156 275 143 288 -3 3 -2 11 3 18 6 7 11
27 13 43 2 17 6 37 11 45 11 22 11 210 0 210 -5 0 -7 6 -4 13 3 8 0 34 -6 58
-6 24 -13 54 -15 65 -6 40 -72 181 -113 240 -57 83 -161 188 -216 218 -11 6
-39 23 -61 37 -22 15 -69 36 -105 49 -36 12 -72 25 -80 28 -35 12 -52 14 -195
17 -82 2 -160 0 -172 -5z"/>
</g>
</svg>
